<mxfile host="app.diagrams.net" modified="2021-05-20T00:28:52.048Z" agent="5.0 (Windows NT 10.0; Win64; x64) AppleWebKit/537.36 (KHTML, like Gecko) Chrome/90.0.4430.212 Safari/537.36 Edg/90.0.818.62" etag="6T3byrswTLlRDwSsyd5u" version="14.6.12" type="github">
  <diagram id="qvrvdUsLyXw7kWjGBXnA" name="Page-1">
    <mxGraphModel dx="1038" dy="628" grid="1" gridSize="10" guides="1" tooltips="1" connect="1" arrows="1" fold="1" page="1" pageScale="1" pageWidth="1654" pageHeight="2336" math="0" shadow="0">
      <root>
        <mxCell id="0" />
        <mxCell id="1" parent="0" />
        <mxCell id="gN51p7fk-sVV7GE8sbgh-2" value="学生" style="shape=umlActor;verticalLabelPosition=bottom;verticalAlign=top;html=1;outlineConnect=0;" vertex="1" parent="1">
          <mxGeometry x="110" y="40" width="30" height="60" as="geometry" />
        </mxCell>
        <mxCell id="gN51p7fk-sVV7GE8sbgh-3" value="教师" style="shape=umlActor;verticalLabelPosition=bottom;verticalAlign=top;html=1;outlineConnect=0;" vertex="1" parent="1">
          <mxGeometry x="80" y="420" width="30" height="60" as="geometry" />
        </mxCell>
        <mxCell id="gN51p7fk-sVV7GE8sbgh-4" value="教务" style="shape=umlActor;verticalLabelPosition=bottom;verticalAlign=top;html=1;outlineConnect=0;" vertex="1" parent="1">
          <mxGeometry x="80" y="560" width="30" height="60" as="geometry" />
        </mxCell>
        <mxCell id="gN51p7fk-sVV7GE8sbgh-11" value="" style="group" vertex="1" connectable="0" parent="1">
          <mxGeometry x="280" y="50" width="360" height="120" as="geometry" />
        </mxCell>
        <mxCell id="gN51p7fk-sVV7GE8sbgh-6" value="&lt;span style=&quot;font-size: 11.0pt ; font-family: &amp;#34;微软雅黑&amp;#34; , sans-serif ; color: #333333&quot;&gt;通过该系统查询自己的课表&lt;/span&gt;" style="rounded=0;whiteSpace=wrap;html=1;" vertex="1" parent="gN51p7fk-sVV7GE8sbgh-11">
          <mxGeometry width="120" height="60" as="geometry" />
        </mxCell>
        <mxCell id="gN51p7fk-sVV7GE8sbgh-7" value="" style="rounded=0;whiteSpace=wrap;html=1;" vertex="1" parent="gN51p7fk-sVV7GE8sbgh-11">
          <mxGeometry y="60" width="120" height="60" as="geometry" />
        </mxCell>
        <mxCell id="gN51p7fk-sVV7GE8sbgh-8" value="" style="rounded=0;whiteSpace=wrap;html=1;" vertex="1" parent="gN51p7fk-sVV7GE8sbgh-11">
          <mxGeometry x="120" width="120" height="60" as="geometry" />
        </mxCell>
        <mxCell id="gN51p7fk-sVV7GE8sbgh-9" value="" style="rounded=0;whiteSpace=wrap;html=1;" vertex="1" parent="gN51p7fk-sVV7GE8sbgh-11">
          <mxGeometry x="120" y="60" width="120" height="60" as="geometry" />
        </mxCell>
        <mxCell id="gN51p7fk-sVV7GE8sbgh-10" value="" style="rounded=0;whiteSpace=wrap;html=1;" vertex="1" parent="gN51p7fk-sVV7GE8sbgh-11">
          <mxGeometry x="240" y="60" width="120" height="60" as="geometry" />
        </mxCell>
      </root>
    </mxGraphModel>
  </diagram>
</mxfile>
